<svg width="15" height="15" viewBox="0 0 15 15" fill="none" xmlns="http://www.w3.org/2000/svg">
<path d="M9.79937 7.10567L13.8395 3.06553C14.3353 2.56975 14.3353 1.76592 13.8395 1.26974L12.9416 0.371837C12.4458 -0.123946 11.642 -0.123946 11.1458 0.371837L7.10567 4.41198L3.06553 0.371837C2.56975 -0.123946 1.76592 -0.123946 1.26974 0.371837L0.371837 1.26974C-0.123946 1.76552 -0.123946 2.56935 0.371837 3.06553L4.41198 7.10567L0.371837 11.1458C-0.123946 11.6416 -0.123946 12.4454 0.371837 12.9416L1.26974 13.8395C1.76552 14.3353 2.56975 14.3353 3.06553 13.8395L7.10567 9.79937L11.1458 13.8395C11.6416 14.3353 12.4458 14.3353 12.9416 13.8395L13.8395 12.9416C14.3353 12.4458 14.3353 11.642 13.8395 11.1458L9.79937 7.10567Z" fill="#CACACA"/>
</svg>
