<svg width="20" height="23" viewBox="0 0 20 23" fill="none" xmlns="http://www.w3.org/2000/svg">
<path d="M13.2686 10.8571C13.2686 11.5543 12.7543 12.1257 12.1029 12.1257C11.4629 12.1257 10.9371 11.5543 10.9371 10.8571C10.9371 10.16 11.4514 9.58857 12.1029 9.58857C12.7543 9.58857 13.2686 10.16 13.2686 10.8571ZM7.93143 9.58857C7.28 9.58857 6.76571 10.16 6.76571 10.8571C6.76571 11.5543 7.29143 12.1257 7.93143 12.1257C8.58286 12.1257 9.09714 11.5543 9.09714 10.8571C9.10857 10.16 8.58286 9.58857 7.93143 9.58857ZM20 2.35429V22.8571C17.1208 20.3128 18.0416 21.155 14.6971 18.0457L15.3029 20.16H2.34286C1.05143 20.16 0 19.1086 0 17.8057V2.35429C0 1.05143 1.05143 0 2.34286 0H17.6571C18.9486 0 20 1.05143 20 2.35429ZM16.7429 13.1886C16.7429 9.50857 15.0971 6.52571 15.0971 6.52571C13.4514 5.29143 11.8857 5.32571 11.8857 5.32571L11.7257 5.50857C13.6686 6.10286 14.5714 6.96 14.5714 6.96C11.8567 5.4721 8.66768 5.47183 6.03429 6.62857C5.61143 6.82286 5.36 6.96 5.36 6.96C5.36 6.96 6.30857 6.05714 8.36571 5.46286L8.25143 5.32571C8.25143 5.32571 6.68571 5.29143 5.04 6.52571C5.04 6.52571 3.39429 9.50857 3.39429 13.1886C3.39429 13.1886 4.35429 14.8457 6.88 14.9257C6.88 14.9257 7.30286 14.4114 7.64571 13.9771C6.19429 13.5429 5.64571 12.6286 5.64571 12.6286C5.81384 12.7463 6.09107 12.8988 6.11429 12.9143C8.0433 13.9946 10.7834 14.3485 13.2457 13.3143C13.6457 13.1657 14.0914 12.9486 14.56 12.64C14.56 12.64 13.9886 13.5771 12.4914 14C12.8343 14.4343 13.2457 14.9257 13.2457 14.9257C15.7714 14.8457 16.7429 13.1886 16.7429 13.1886Z" fill="#E9ECEF"/>
</svg>
