<svg width="23" height="20" viewBox="0 0 23 20" fill="none" xmlns="http://www.w3.org/2000/svg">
<path d="M2.89847 0.123746C1.92872 0.699544 0.0181211 2.89446 0 3.47008V4.42289C0 5.63066 1.12894 6.69219 2.15396 6.69219C3.38475 6.69219 4.41022 5.67215 4.41031 4.46148C4.41031 5.67215 5.40063 6.69219 6.63151 6.69219C7.86247 6.69219 8.82099 5.67215 8.82099 4.46148C8.82099 5.67215 9.87401 6.69219 11.1049 6.69219H11.1272C12.3581 6.69219 13.4112 5.67215 13.4112 4.46148C13.4112 5.67215 14.3698 6.69219 15.6005 6.69219C16.8314 6.69219 17.8217 5.67215 17.8217 4.46148C17.8217 5.67215 18.8474 6.69219 20.0781 6.69219C21.1031 6.69219 22.2321 5.63084 22.2321 4.42289V3.47008C22.2139 2.89437 20.3033 0.699362 19.3338 0.123746C16.3197 0.0179184 14.2301 -0.000383903 11.1159 6.91249e-05C8.00183 0.000340941 3.75623 0.0489961 2.89829 0.123746H2.89847ZM8.80541 6.12337C8.68772 6.32853 8.54194 6.51623 8.37231 6.68105C7.90769 7.13534 7.27082 7.41694 6.56872 7.41694C5.8931 7.41758 5.24418 7.15323 4.76132 6.68068C4.59297 6.51578 4.46504 6.33946 4.34789 6.13415L4.34734 6.13451C4.23028 6.34019 4.06719 6.51642 3.89848 6.6815C3.41544 7.1537 2.76659 7.41782 2.09108 7.41722C2.00646 7.41722 1.91839 7.39384 1.84717 7.36938C1.74823 8.39974 1.70646 9.38444 1.6917 10.1024L1.69151 10.1065C1.6897 10.4711 1.68789 10.7709 1.68608 11.1874C1.70511 13.3492 1.47198 18.1943 2.63925 19.3848C4.4481 19.8065 7.77658 19.9986 11.1158 19.9998H11.1164C14.4556 19.9986 17.784 19.8065 19.5929 19.3848C20.7602 18.1942 20.527 13.3492 20.5461 11.1873C20.5441 10.7709 20.5424 10.4711 20.5406 10.1064L20.5404 10.1023C20.5257 9.38417 20.4839 8.39956 20.385 7.3692C20.3138 7.39366 20.2258 7.41704 20.1411 7.41704C19.4656 7.41764 18.8167 7.15352 18.3337 6.68132C18.165 6.51624 18.0019 6.3401 17.8847 6.13433L17.8842 6.13397C17.7669 6.33928 17.6391 6.51569 17.4707 6.6805C16.9879 7.15301 16.339 7.41733 15.6634 7.41667C14.9614 7.41667 14.3245 7.13489 13.8598 6.68068C13.6902 6.51587 13.5444 6.32816 13.4267 6.12301C13.3103 6.32794 13.1659 6.51564 12.9976 6.68068C12.5147 7.15315 11.8657 7.41742 11.1901 7.41676C11.1656 7.41676 11.1411 7.41568 11.1167 7.41495H11.116C11.0916 7.41568 11.0671 7.41676 11.0424 7.41676C10.3667 7.41744 9.71778 7.1532 9.23479 6.68078C9.06653 6.51572 8.92211 6.32803 8.80568 6.1231L8.80541 6.12337ZM6.94926 8.52351L6.94908 8.52442H6.95044C7.68552 8.52596 8.33852 8.52442 9.14762 9.40746C9.7844 9.34068 10.4498 9.30734 11.1158 9.30833H11.1163C11.7823 9.30743 12.4477 9.34068 13.0845 9.40746C13.8936 8.52433 14.5466 8.52587 15.2817 8.52442H15.283L15.2828 8.52351C15.6301 8.52351 17.0193 8.52351 17.9874 11.2423L19.0272 14.9721C19.7977 17.7468 18.7804 17.8146 17.5116 17.8171C15.6299 17.7471 14.588 16.3805 14.588 15.0142C13.5464 15.1849 12.3313 15.2703 11.1162 15.2704H11.1157C9.90046 15.2704 8.68535 15.1849 7.64384 15.0142C7.64384 16.3805 6.60188 17.7471 4.72028 17.8171C3.45144 17.8146 2.4343 17.7469 3.20481 14.9721L4.24487 11.2424C5.2129 8.5236 6.60215 8.5236 6.94944 8.5236L6.94926 8.52351ZM11.1158 10.6602V10.6607C11.1139 10.6625 9.13485 12.4801 8.77904 13.1265L10.0751 13.0746V14.2048C10.0751 14.2578 10.5951 14.2362 11.1158 14.2121H11.1163C11.6367 14.2362 12.1569 14.2578 12.1569 14.2048V13.0746L13.4529 13.1265C13.097 12.4801 11.1162 10.6607 11.1162 10.6607V10.6602L11.1159 10.6603L11.1158 10.6602Z" fill="#E9ECEF"/>
</svg>
