<svg width="26" height="26" viewBox="0 0 26 26" fill="none" xmlns="http://www.w3.org/2000/svg">
<path d="M22.52 14.2533C22.5733 13.8533 22.6 13.44 22.6 13C22.6 12.5733 22.5733 12.1467 22.5067 11.7467L25.2133 9.64C25.4533 9.45333 25.52 9.09333 25.3733 8.82666L22.8133 4.4C22.6533 4.10666 22.32 4.01333 22.0267 4.10666L18.84 5.38666C18.1733 4.88 17.4667 4.45333 16.68 4.13333L16.2 0.746663C16.1467 0.426663 15.88 0.199997 15.56 0.199997H10.44C10.12 0.199997 9.86665 0.426663 9.81332 0.746663L9.33332 4.13333C8.54665 4.45333 7.82665 4.89333 7.17332 5.38666L3.98665 4.10666C3.69332 4 3.35998 4.10666 3.19998 4.4L0.653317 8.82666C0.493317 9.10666 0.54665 9.45333 0.813317 9.64L3.51998 11.7467C3.45332 12.1467 3.39998 12.5867 3.39998 13C3.39998 13.4133 3.42665 13.8533 3.49332 14.2533L0.78665 16.36C0.54665 16.5467 0.479984 16.9067 0.62665 17.1733L3.18665 21.6C3.34665 21.8933 3.67998 21.9867 3.97332 21.8933L7.15998 20.6133C7.82665 21.12 8.53332 21.5467 9.31998 21.8667L9.79998 25.2533C9.86665 25.5733 10.12 25.8 10.44 25.8H15.56C15.88 25.8 16.1467 25.5733 16.1867 25.2533L16.6667 21.8667C17.4533 21.5467 18.1733 21.12 18.8267 20.6133L22.0133 21.8933C22.3067 22 22.64 21.8933 22.8 21.6L25.36 17.1733C25.52 16.88 25.4533 16.5467 25.2 16.36L22.52 14.2533ZM13 17.8C10.36 17.8 8.19998 15.64 8.19998 13C8.19998 10.36 10.36 8.2 13 8.2C15.64 8.2 17.8 10.36 17.8 13C17.8 15.64 15.64 17.8 13 17.8Z" fill="#CACACA"/>
</svg>
