<svg width="20" height="20" viewBox="0 0 20 20" fill="none" xmlns="http://www.w3.org/2000/svg">
<path d="M20 10C20 15.5242 15.5161 20 9.98387 20C5.39516 20 1.53226 16.9234 0.346774 12.7258L4.18548 14.3105C4.44355 15.6048 5.59274 16.5847 6.96371 16.5847C8.54435 16.5847 9.8629 15.2782 9.79435 13.621L13.2016 11.1935C15.3024 11.246 17.0645 9.54435 17.0645 7.42339C17.0645 5.34274 15.371 3.65323 13.2863 3.65323C11.2016 3.65323 9.50806 5.34677 9.50806 7.42339V7.47177L7.12097 10.9274C6.49597 10.8911 5.88306 11.0645 5.36694 11.4153L0 9.19758C0.41129 4.04839 4.72177 0 9.98387 0C15.5161 0 20 4.47581 20 10ZM6.27823 15.1734L5.04839 14.6653C5.27438 15.1346 5.6646 15.5047 6.14516 15.7056C7.22984 16.1573 8.47581 15.6411 8.92742 14.5605C9.14516 14.0363 9.14919 13.4597 8.93145 12.9355C8.71371 12.4113 8.30645 12 7.78226 11.7823C7.2621 11.5645 6.70565 11.5726 6.21371 11.7581L7.48387 12.2823C8.28226 12.6129 8.66129 13.5282 8.32661 14.3266C7.99194 15.129 7.07661 15.504 6.27823 15.1734ZM13.2863 9.93548C11.8992 9.93548 10.7702 8.80645 10.7702 7.42339C10.7702 6.04032 11.8992 4.91129 13.2863 4.91129C14.6734 4.91129 15.8024 6.04032 15.8024 7.42339C15.8024 8.80645 14.6774 9.93548 13.2863 9.93548ZM13.2903 9.30645C14.3347 9.30645 15.1815 8.45968 15.1815 7.41935C15.1815 6.375 14.3347 5.53226 13.2903 5.53226C12.246 5.53226 11.3992 6.37903 11.3992 7.41935C11.4032 8.45968 12.25 9.30645 13.2903 9.30645Z" fill="#E9ECEF"/>
</svg>
