<svg width="14" height="14" viewBox="0 0 14 14" fill="none" xmlns="http://www.w3.org/2000/svg">
<g clip-path="url(#clip0_113_154)">
<path d="M2.20494 4.28342C2.21777 4.5115 2.23002 4.57392 2.32336 4.75884C2.46102 5.04 2.66461 5.24592 2.94577 5.38417C3.14002 5.481 3.18961 5.49034 3.44219 5.49967C3.67027 5.509 3.75136 5.49967 3.90477 5.446C4.53244 5.23367 4.91394 4.62409 4.80486 3.99584C4.68294 3.255 3.97361 2.75509 3.24561 2.90209C3.06419 2.9365 2.78652 3.0765 2.63661 3.20542C2.33327 3.46792 2.18044 3.84242 2.20494 4.28342V4.28342Z" fill="white"/>
<path d="M2.99586 0.0454C1.6017 0.295067 0.48053 1.3264 0.127614 2.68265C-0.000136202 3.17323 -0.00946953 3.46082 0.00569714 7.26065C0.0115305 10.7478 0.0150305 10.8295 0.0745305 11.1013C0.39653 12.5544 1.42786 13.5887 2.89611 13.9293C3.08686 13.9731 3.3307 13.9824 4.89928 13.9888C6.52095 14.0017 6.68953 13.9982 6.73386 13.9544C6.77761 13.9107 6.78053 13.3512 6.78053 7.0104C6.78053 2.30698 6.7712 0.0949833 6.75253 0.0547333C6.72453 0.00106666 6.67436 -0.00126667 4.97453 0.00106666C3.5932 0.00456666 3.17845 0.0139 2.99703 0.0448167L2.99586 0.0454V0.0454ZM5.61036 1.12748V7.00282L5.61678 7.00223V12.8741L4.43553 12.8589C3.3482 12.8461 3.2327 12.8402 3.01395 12.7866C2.07945 12.5462 1.38878 11.827 1.1922 10.8902C1.12978 10.5962 1.12978 3.38673 1.18928 3.09915C1.27339 2.70026 1.45412 2.32811 1.71561 2.01537C1.9771 1.70262 2.31135 1.45883 2.68903 1.3054C3.07053 1.15198 3.24845 1.13332 4.48861 1.13098L5.61036 1.12748ZM8.1887 0.0174C8.17586 0.0267333 8.17003 3.1674 8.17003 7.00223C8.17003 13.3244 8.17353 13.9649 8.2167 13.9836C8.29486 14.0116 10.5442 14.0022 10.8224 13.9707C11.4065 13.9018 11.9649 13.6917 12.4495 13.3584C12.934 13.0251 13.33 12.5787 13.6032 12.058C13.6858 11.8937 13.7588 11.7249 13.8219 11.5522C14.0034 11.008 13.9999 11.1521 13.9999 6.98648C13.9999 3.6609 13.994 3.16448 13.9532 2.95507C13.6656 1.4454 12.5129 0.304983 11.0004 0.0459833C10.7968 0.0115667 10.4853 0.00165 9.47553 0.00165C8.77553 -0.00185 8.19745 0.00748333 8.18811 0.0168167H8.1887V0.0174ZM9.59103 7.27115C9.80628 6.56182 10.5594 6.14298 11.285 6.33373V6.33315C11.5089 6.39271 11.7149 6.50621 11.8848 6.66373C12.0547 6.82124 12.1834 7.01797 12.2598 7.23673C12.3566 7.50857 12.3537 7.90873 12.2563 8.15898C12.0784 8.61807 11.7313 8.94007 11.2844 9.05907C10.5594 9.24632 9.7882 8.80882 9.57878 8.09015C9.51578 7.8714 9.51928 7.49923 9.59103 7.27115Z" fill="white"/>
</g>
<defs>
<clipPath id="clip0_113_154">
<rect width="14" height="14" fill="white"/>
</clipPath>
</defs>
</svg>
